<svg width="162" height="27" viewBox="0 0 162 27" fill="none" xmlns="http://www.w3.org/2000/svg">
<path d="M24.948 2.6226e-05V11.448H27.468V25.452C26.484 25.716 25.44 25.908 24.336 26.028C23.256 26.172 22.152 26.244 21.024 26.244C19.92 26.244 18.816 26.172 17.712 26.028C16.632 25.908 15.612 25.716 14.652 25.452C13.668 25.188 12.624 24.984 11.52 24.84C10.44 24.72 9.33597 24.66 8.20797 24.66C7.10397 24.66 5.99996 24.72 4.89596 24.84C3.79196 24.984 2.75997 25.188 1.79997 25.452V1.80003H-3.51369e-05V2.6226e-05H24.948ZM14.652 23.652C15.324 23.844 16.008 23.988 16.704 24.084C17.424 24.204 18.168 24.288 18.936 24.336V13.248H10.332V22.932C11.844 23.028 13.284 23.268 14.652 23.652ZM10.332 11.448H16.416V1.80003H10.332V11.448ZM41.1983 23.04C41.6063 23.112 42.0263 23.196 42.4583 23.292C42.8903 23.412 43.3343 23.532 43.7903 23.652C44.2223 23.772 44.6543 23.88 45.0863 23.976C45.5183 24.072 45.9383 24.156 46.3463 24.228V20.772H54.8783V25.452C52.9343 26.004 51.0863 26.28 49.3343 26.28C47.5823 26.28 45.7343 26.004 43.7903 25.452C41.8463 24.9 39.9863 24.624 38.2103 24.624C36.4583 24.624 34.6103 24.9 32.6663 25.452V9.00003H30.8663V7.20003H54.8783V18.252H41.1983V23.04ZM41.1983 16.452H46.3463V9.00003H41.1983V16.452ZM59.3808 2.6226e-05H67.9128V25.452H59.3808V2.6226e-05ZM72.916 9.18003H81.448V25.452H72.916V9.18003ZM72.916 2.6226e-05H81.448V6.12003H72.916V2.6226e-05ZM95.1632 23.04C95.5712 23.112 95.9912 23.196 96.4232 23.292C96.8552 23.412 97.2992 23.532 97.7552 23.652C98.1872 23.772 98.6192 23.88 99.0512 23.976C99.4832 24.072 99.9032 24.156 100.311 24.228V20.772H108.843V25.452C106.899 26.004 105.051 26.28 103.299 26.28C101.547 26.28 99.6992 26.004 97.7552 25.452C95.8112 24.9 93.9512 24.624 92.1752 24.624C90.4232 24.624 88.5752 24.9 86.6312 25.452V9.00003H84.8312V7.20003H108.843V18.252H95.1632V23.04ZM95.1632 16.452H100.311V9.00003H95.1632V16.452ZM121.014 7.20003L127.674 23.22L133.938 7.20003H136.134L129.006 25.452H119.97L113.13 9.00003H111.366V7.20003H121.014ZM147.862 23.04C148.27 23.112 148.69 23.196 149.122 23.292C149.554 23.412 149.998 23.532 150.454 23.652C150.886 23.772 151.318 23.88 151.75 23.976C152.182 24.072 152.602 24.156 153.01 24.228V20.772H161.542V25.452C159.598 26.004 157.75 26.28 155.998 26.28C154.246 26.28 152.398 26.004 150.454 25.452C148.51 24.9 146.65 24.624 144.874 24.624C143.122 24.624 141.274 24.9 139.33 25.452V9.00003H137.53V7.20003H161.542V18.252H147.862V23.04ZM147.862 16.452H153.01V9.00003H147.862V16.452Z" fill="#204470"/>
</svg>
