<svg width="38" height="51" viewBox="0 0 38 51" fill="none" xmlns="http://www.w3.org/2000/svg">
<path d="M6.20605 0.5H31.7939C32.4599 0.5 33 1.04006 33 1.70605V5.4707H5V1.70605C5 1.04006 5.54006 0.5 6.20605 0.5Z" fill="#D6D6D6" stroke="#F4F8FF"/>
<rect x="7" y="6.4707" width="24" height="20" fill="#D6D6D6" stroke="#F4F8FF"/>
<path d="M10.8359 38.5332V39.127H8.00781V39.7363H10.0312V41.377H5.95312V41.9941H10.2266V42.5645H5.22656V40.8379H9.29688V40.3066H5.21875V39.7363H7.26562V39.127H4.45312V38.5332H10.8359ZM10.0156 35.8613V38.0176H5.27344V35.8613H10.0156ZM6 36.4473V37.4316H9.27344V36.4473H6ZM17.75 38.9863V39.5801H14.9219V40.3301H16.9688V42.5488H12.1328V40.3301H14.1875V39.5801H11.3672V38.9863H17.75ZM17.1484 35.8535V36.4551H16.1328V37.791H17.1172V38.3926H11.9844V37.791H12.9766V36.4551H11.9531V35.8535H17.1484ZM12.8672 40.916V41.9473H16.25V40.916H12.8672ZM13.7109 37.791H15.3906V36.4551H13.7109V37.791ZM26.2422 35.6348V42.6348H25.5312V39.0176H24.625V42.2754H23.9453V35.7754H24.625V38.4082H25.5312V35.6348H26.2422ZM23.0938 36.4785V37.0801H21.2109V40.3223C22.0703 40.3145 22.7188 40.2754 23.4688 40.1348L23.5234 40.7441C22.6797 40.916 21.9609 40.9473 20.9375 40.9551H20.4688V36.4785H23.0938ZM29.0469 36.1582C29.6836 36.1582 30.2109 36.5254 30.5234 37.1582H32.25V35.6348H32.9844V42.6504H32.25V39.9629H30.5703C30.2695 40.666 29.7188 41.0723 29.0469 41.0723C28 41.0723 27.2656 40.1191 27.2734 38.6113C27.2656 37.1113 28 36.1582 29.0469 36.1582ZM29.0469 36.8223C28.4141 36.8223 27.9766 37.5098 27.9766 38.6113C27.9766 39.7207 28.4141 40.4082 29.0469 40.4082C29.6797 40.4082 30.1172 39.7207 30.1172 38.6113C30.1172 37.5098 29.6797 36.8223 29.0469 36.8223ZM30.7344 37.7676C30.7852 38.0254 30.8203 38.3066 30.8203 38.6113C30.8203 38.877 30.7969 39.123 30.75 39.3535H32.25V37.7676H30.7344Z" fill="#D6D6D6"/>
</svg>
