<svg width="55" height="52" viewBox="0 0 55 52" fill="none" xmlns="http://www.w3.org/2000/svg">
<circle cx="27.5" cy="7" r="6.5" fill="#D9D9D9" stroke="#F4F8FF"/>
<path d="M27.5 13.5C33.299 13.5 38 18.201 38 24V27.5H17V24C17 18.201 21.701 13.5 27.5 13.5Z" fill="#D9D9D9" stroke="#F4F8FF"/>
<path d="M13.7969 37.3594V41.9062H10.5234V37.3594H13.7969ZM11.25 37.9453V41.3047H13.0625V37.9453H11.25ZM15.7109 36.6641V39.4062H16.8359V40.0312H15.7109V43.6641H14.9688V36.6641H15.7109ZM22.9688 36.6641V43.6797H22.2266V36.6641H22.9688ZM19.2266 37.1875C20.2656 37.1875 21.0312 38.1406 21.0312 39.6406C21.0312 41.1484 20.2656 42.1016 19.2266 42.1016C18.1719 42.1016 17.4141 41.1484 17.4141 39.6406C17.4141 38.1406 18.1719 37.1875 19.2266 37.1875ZM19.2266 37.8516C18.5781 37.8516 18.1328 38.5391 18.1328 39.6406C18.1328 40.75 18.5781 41.4375 19.2266 41.4375C19.8672 41.4375 20.3125 40.75 20.3125 39.6406C20.3125 38.5391 19.8672 37.8516 19.2266 37.8516ZM30.1406 36.6641V43.6641H29.4297V36.6641H30.1406ZM28.7578 36.8203V43.3047H28.0547V39.9531H27.1797V39.2891H28.0547V36.8203H28.7578ZM27.3672 37.5234V38.1328H26.8281V41.2578C27.0664 41.2422 27.2969 41.2148 27.5078 41.1875L27.5625 41.7266C26.4531 41.9453 25 41.9766 24.0938 41.9766L24.0078 41.3516L24.6953 41.3438V38.1328H24.1562V37.5234H27.3672ZM25.3672 41.3359C25.6211 41.3281 25.8828 41.3203 26.1406 41.3047V38.1328H25.3672V41.3359ZM36.7969 36.6641V43.6797H36.0547V36.6641H36.7969ZM33.0547 37.1875C34.0938 37.1875 34.8594 38.1406 34.8594 39.6406C34.8594 41.1484 34.0938 42.1016 33.0547 42.1016C32 42.1016 31.2422 41.1484 31.2422 39.6406C31.2422 38.1406 32 37.1875 33.0547 37.1875ZM33.0547 37.8516C32.4062 37.8516 31.9609 38.5391 31.9609 39.6406C31.9609 40.75 32.4062 41.4375 33.0547 41.4375C33.6953 41.4375 34.1406 40.75 34.1406 39.6406C34.1406 38.5391 33.6953 37.8516 33.0547 37.8516ZM40.4922 38.7266C40.4922 39.8984 41.2578 41.1094 42.3359 41.5703L41.9297 42.1484C41.1055 41.7852 40.4492 41.0156 40.125 40.0781C39.8008 41.0781 39.1406 41.9297 38.3281 42.3281L37.8984 41.7422C38.9531 41.25 39.7344 39.9297 39.7422 38.7266V37.9844H38.1406V37.3672H42.0859V37.9844H40.4922V38.7266ZM43.7109 36.6641V43.6641H42.9688V36.6641H43.7109Z" fill="#D6D6D6"/>
</svg>
